<svg xmlns="http://www.w3.org/2000/svg" viewBox="0 0 128 128">
	<defs>
		<linearGradient id="g" x1="16" x2="112" y1="14" y2="116" gradientUnits="userSpaceOnUse">
			<stop offset="0" stop-color="#d9e4ef"/>
			<stop offset=".52" stop-color="#8a9cac"/>
			<stop offset="1" stop-color="#415466"/>
		</linearGradient>
	</defs>
	<rect x="8" y="8" width="112" height="112" rx="27" fill="url(#g)"/>
	<path fill="#fff" fill-opacity=".9" d="M58 24h12l4 13 10 4 12-6 8 9-7 12 4 10 13 4v12l-13 4-4 10 7 12-8 9-12-6-10 4-4 13H58l-4-13-10-4-12 6-8-9 7-12-4-10-13-4V70l13-4 4-10-7-12 8-9 12 6 10-4z"/>
	<circle cx="64" cy="76" r="25" fill="#5a6f80"/>
	<circle cx="64" cy="76" r="12" fill="#fff"/>
	<path fill="#fff" fill-opacity=".35" d="M38 34c16-12 38-13 56 0l-8 7-12-4-4-13H58l-4 13-10 4z"/>
</svg>
