<svg xmlns="http://www.w3.org/2000/svg" viewBox="0 0 128 128">
	<defs>
		<linearGradient id="g" x1="16" x2="112" y1="14" y2="116" gradientUnits="userSpaceOnUse">
			<stop offset="0" stop-color="#ffd580"/>
			<stop offset=".52" stop-color="#f4845f"/>
			<stop offset="1" stop-color="#8d5be0"/>
		</linearGradient>
	</defs>
	<rect x="8" y="8" width="112" height="112" rx="27" fill="url(#g)"/>
	<path fill="#fff" fill-opacity=".9" d="M84 25c8 0 15 3 20 9L87 51l10 10 17-17c7 18-11 36-29 29L48 110a10 10 0 0 1-14-14l37-37c-6-17 6-34 23-34z"/>
	<path fill="none" stroke="#fff" stroke-linecap="round" stroke-width="10" d="M33 34 99 100"/>
	<path fill="none" stroke="#6f4bc2" stroke-linecap="round" stroke-width="5" d="M32 32 52 52m46 46 7 7"/>
	<circle cx="41" cy="101" r="5" fill="#f4845f"/>
</svg>
