<svg xmlns="http://www.w3.org/2000/svg" viewBox="0 0 128 128" role="img" aria-label="Plugins">
  <desc>App glyph based on Tabler Icons v3.44.0 under the MIT License; wrapper by PufferDesk.</desc>
  <defs>
    <linearGradient id="pdk-app-bg" x1="16" y1="12" x2="112" y2="118" gradientUnits="userSpaceOnUse">
      <stop offset="0" stop-color="#45d9d0"/>
      <stop offset="1" stop-color="#087f98"/>
    </linearGradient>
    <linearGradient id="pdk-app-shine" x1="18" y1="14" x2="90" y2="70" gradientUnits="userSpaceOnUse">
      <stop offset="0" stop-color="#ffffff" stop-opacity=".42"/>
      <stop offset="1" stop-color="#ffffff" stop-opacity="0"/>
    </linearGradient>
  </defs>
  <rect x="14" y="18" width="104" height="104" rx="25" fill="#13203a" opacity=".18"/>
  <rect x="12" y="12" width="104" height="104" rx="25" fill="url(#pdk-app-bg)"/>
  <rect x="14" y="14" width="100" height="100" rx="23" fill="url(#pdk-app-shine)"/>
  <rect x="13" y="13" width="102" height="102" rx="24" fill="none" stroke="#ffffff" stroke-opacity=".32"/>
  <g fill="none" stroke="#f8fbff" stroke-linecap="round" stroke-linejoin="round" stroke-width="1.68" transform="translate(34 34) scale(2.5)">
    <path d="M7 12l5 5l-1.5 1.5a3.536 3.536 0 1 1 -5 -5l1.5 -1.5" />
    <path d="M17 12l-5 -5l1.5 -1.5a3.536 3.536 0 1 1 5 5l-1.5 1.5" />
    <path d="M3 21l2.5 -2.5" />
    <path d="M18.5 5.5l2.5 -2.5" />
    <path d="M10 11l-2 2" />
    <path d="M13 14l-2 2" />
  </g>
</svg>
