<svg xmlns="http://www.w3.org/2000/svg" viewBox="0 0 128 128">
	<defs>
		<linearGradient id="g" x1="16" x2="112" y1="14" y2="116" gradientUnits="userSpaceOnUse">
			<stop offset="0" stop-color="#d9e4ef"/>
			<stop offset=".52" stop-color="#8a9cac"/>
			<stop offset="1" stop-color="#415466"/>
		</linearGradient>
	</defs>
	<rect x="8" y="8" width="112" height="112" rx="27" fill="url(#g)"/>
	<g fill="#fff" fill-opacity=".92" transform="translate(64 64)">
		<rect x="-5" y="-45" width="10" height="19" rx="3"/>
		<rect x="-5" y="26" width="10" height="19" rx="3"/>
		<rect x="-45" y="-5" width="19" height="10" rx="3"/>
		<rect x="26" y="-5" width="19" height="10" rx="3"/>
		<g transform="rotate(45)">
			<rect x="-5" y="-45" width="10" height="19" rx="3"/>
			<rect x="-5" y="26" width="10" height="19" rx="3"/>
			<rect x="-45" y="-5" width="19" height="10" rx="3"/>
			<rect x="26" y="-5" width="19" height="10" rx="3"/>
		</g>
	</g>
	<circle cx="64" cy="64" r="28" fill="#fff" fill-opacity=".92"/>
	<circle cx="64" cy="64" r="15" fill="#5a6f80"/>
	<circle cx="64" cy="64" r="7" fill="#fff" fill-opacity=".92"/>
	<path fill="#fff" fill-opacity=".25" d="M36 34c16-13 43-15 61 0-10 4-22 7-36 7-11 0-20-2-25-7z"/>
</svg>
