<svg xmlns="http://www.w3.org/2000/svg" viewBox="0 0 128 128" role="img" aria-label="Trash">
  <desc>Trash glyph based on Tabler Icons v3.44.0 under the MIT License; wrapper by PufferDesk.</desc>
  <defs>
    <linearGradient id="pdk-trash-body" x1="35" y1="18" x2="92" y2="112" gradientUnits="userSpaceOnUse">
      <stop offset="0" stop-color="#ffffff"/>
      <stop offset=".52" stop-color="#e9eef7"/>
      <stop offset="1" stop-color="#b8c3d3"/>
    </linearGradient>
  </defs>
  <path fill="#152238" opacity=".18" d="M41 45h50l-3.7 56.6A10.5 10.5 0 0 1 76.8 111H55.4a10.5 10.5 0 0 1-10.5-9.4L41 45Z"/>
  <path fill="url(#pdk-trash-body)" stroke="#7c8799" stroke-width="2.5" stroke-linejoin="round" d="M39 42h50l-3.8 57.4A10.5 10.5 0 0 1 74.7 109H53.3a10.5 10.5 0 0 1-10.5-9.6L39 42Z"/>
  <path fill="#f8fbff" stroke="#7c8799" stroke-width="2.5" stroke-linejoin="round" d="M33 35h62v9H33z"/>
  <g fill="none" stroke="#536173" stroke-linecap="round" stroke-linejoin="round" stroke-width="1.45" transform="translate(28 24) scale(3)">
    <path d="M4 7l16 0" />
    <path d="M10 11l0 6" />
    <path d="M14 11l0 6" />
    <path d="M5 7l1 12a2 2 0 0 0 2 2h8a2 2 0 0 0 2 -2l1 -12" />
    <path d="M9 7v-3a1 1 0 0 1 1 -1h4a1 1 0 0 1 1 1v3" />
  </g>
</svg>
