<svg xmlns="http://www.w3.org/2000/svg" viewBox="0 0 128 128" role="img" aria-label="appearance">
	<metadata>Glyph derived from Lucide icon palette.svg; see THIRD-PARTY-ASSETS.txt.</metadata>
	<defs>
		<linearGradient id="g-appearance-svg" x1="18" x2="110" y1="14" y2="116" gradientUnits="userSpaceOnUse">
			<stop offset="0" stop-color="#ffd66f"/>
			<stop offset=".55" stop-color="#ff7c77"/>
			<stop offset="1" stop-color="#8067de"/>
		</linearGradient>
	</defs>
	<rect x="8" y="8" width="112" height="112" rx="27" fill="url(#g-appearance-svg)"/>
	<path fill="#fff" fill-opacity=".2" d="M22 32c22-18 58-18 84 4 8 7 12 18 11 31-19-10-39-13-60-7-18 5-35 0-50-13 2-6 7-11 15-15z"/>
	<g fill="none" stroke="#fff" stroke-linecap="round" stroke-linejoin="round" stroke-width="2.2" transform="translate(28 28) scale(3)">
		<path d="M12 22a1 1 0 0 1 0-20 10 9 0 0 1 10 9 5 5 0 0 1-5 5h-2.25a1.75 1.75 0 0 0-1.4 2.8l.3.4a1.75 1.75 0 0 1-1.4 2.8z" />
		<circle cx="13.5" cy="6.5" r=".5" fill="#fff" />
		<circle cx="17.5" cy="10.5" r=".5" fill="#fff" />
		<circle cx="6.5" cy="12.5" r=".5" fill="#fff" />
		<circle cx="8.5" cy="7.5" r=".5" fill="#fff" />
	</g>
</svg>
