<svg xmlns="http://www.w3.org/2000/svg" viewBox="0 0 128 128" role="img" aria-label="dashboard">
	<metadata>Glyph derived from Lucide icon layout-dashboard.svg; see THIRD-PARTY-ASSETS.txt.</metadata>
	<defs>
		<linearGradient id="g-dashboard-svg" x1="18" x2="110" y1="14" y2="116" gradientUnits="userSpaceOnUse">
			<stop offset="0" stop-color="#40d7c4"/>
			<stop offset=".55" stop-color="#2c8fc9"/>
			<stop offset="1" stop-color="#2b5a96"/>
		</linearGradient>
	</defs>
	<rect x="8" y="8" width="112" height="112" rx="27" fill="url(#g-dashboard-svg)"/>
	<path fill="#fff" fill-opacity=".2" d="M22 32c22-18 58-18 84 4 8 7 12 18 11 31-19-10-39-13-60-7-18 5-35 0-50-13 2-6 7-11 15-15z"/>
	<g fill="none" stroke="#fff" stroke-linecap="round" stroke-linejoin="round" stroke-width="2.2" transform="translate(28 28) scale(3)">
		<rect width="7" height="9" x="3" y="3" rx="1" />
		<rect width="7" height="5" x="14" y="3" rx="1" />
		<rect width="7" height="9" x="14" y="12" rx="1" />
		<rect width="7" height="5" x="3" y="16" rx="1" />
	</g>
</svg>
