<svg xmlns="http://www.w3.org/2000/svg" viewBox="0 0 128 128" role="img" aria-label="folder-system">
	<metadata>Glyph derived from Lucide icon folder-cog.svg; see THIRD-PARTY-ASSETS.txt.</metadata>
	<defs>
		<linearGradient id="g-folder-system-svg" x1="18" x2="110" y1="14" y2="116" gradientUnits="userSpaceOnUse">
			<stop offset="0" stop-color="#f3f7fb"/>
			<stop offset=".55" stop-color="#9aaabd"/>
			<stop offset="1" stop-color="#556577"/>
		</linearGradient>
	</defs>
	<rect x="8" y="8" width="112" height="112" rx="27" fill="url(#g-folder-system-svg)"/>
	<path fill="#fff" fill-opacity=".34" d="M24 44h80a8 8 0 0 1 8 8v12H16V52a8 8 0 0 1 8-8z"/>
	<g fill="none" stroke="#fff" stroke-linecap="round" stroke-linejoin="round" stroke-width="2.1" transform="translate(28 28) scale(3)">
		<path d="M10.3 20H4a2 2 0 0 1-2-2V5a2 2 0 0 1 2-2h3.98a2 2 0 0 1 1.69.9l.66 1.2A2 2 0 0 0 12 6h8a2 2 0 0 1 2 2v3.3" />
		<path d="m14.305 19.53.923-.382" />
		<path d="m15.228 16.852-.923-.383" />
		<path d="m16.852 15.228-.383-.923" />
		<path d="m16.852 20.772-.383.924" />
		<path d="m19.148 15.228.383-.923" />
		<path d="m19.53 21.696-.382-.924" />
		<path d="m20.772 16.852.924-.383" />
		<path d="m20.772 19.148.924.383" />
		<circle cx="18" cy="18" r="3" />
	</g>
</svg>
