<svg xmlns="http://www.w3.org/2000/svg" viewBox="0 0 128 128">
	<defs>
		<linearGradient id="g" x1="18" x2="108" y1="24" y2="108" gradientUnits="userSpaceOnUse">
			<stop offset="0" stop-color="#b9f6a7"/>
			<stop offset=".55" stop-color="#48c587"/>
			<stop offset="1" stop-color="#1c7f83"/>
		</linearGradient>
	</defs>
	<path fill="#d9ffd0" d="M18 38a10 10 0 0 1 10-10h28l10 11h36a10 10 0 0 1 10 10v8H18z"/>
	<rect x="14" y="45" width="100" height="72" rx="13" fill="url(#g)"/>
	<path fill="#fff" fill-opacity=".42" d="M25 55h78a7 7 0 0 1 7 7v8H18v-8a7 7 0 0 1 7-7z"/>
	<circle cx="64" cy="88" r="18" fill="none" stroke="#fff" stroke-width="7"/>
	<path fill="none" stroke="#fff" stroke-linecap="round" stroke-width="7" d="M64 70v36M46 88h36"/>
</svg>
