<svg xmlns="http://www.w3.org/2000/svg" viewBox="0 0 128 128" role="img" aria-label="folder-content">
	<metadata>Glyph derived from Lucide icon folder-open.svg; see THIRD-PARTY-ASSETS.txt.</metadata>
	<defs>
		<linearGradient id="g-folder-content-svg" x1="18" x2="110" y1="14" y2="116" gradientUnits="userSpaceOnUse">
			<stop offset="0" stop-color="#bdeeff"/>
			<stop offset=".55" stop-color="#43afe9"/>
			<stop offset="1" stop-color="#226ab5"/>
		</linearGradient>
	</defs>
	<rect x="8" y="8" width="112" height="112" rx="27" fill="url(#g-folder-content-svg)"/>
	<path fill="#fff" fill-opacity=".34" d="M24 44h80a8 8 0 0 1 8 8v12H16V52a8 8 0 0 1 8-8z"/>
	<g fill="none" stroke="#fff" stroke-linecap="round" stroke-linejoin="round" stroke-width="2.1" transform="translate(28 28) scale(3)">
		<path d="m6 14 1.5-2.9A2 2 0 0 1 9.24 10H20a2 2 0 0 1 1.94 2.5l-1.54 6a2 2 0 0 1-1.95 1.5H4a2 2 0 0 1-2-2V5a2 2 0 0 1 2-2h3.9a2 2 0 0 1 1.69.9l.81 1.2a2 2 0 0 0 1.67.9H18a2 2 0 0 1 2 2v2" />
	</g>
</svg>
