<svg xmlns="http://www.w3.org/2000/svg" viewBox="0 0 128 128" role="img" aria-label="folder-site">
	<metadata>Glyph derived from Lucide icon folder-tree.svg; see THIRD-PARTY-ASSETS.txt.</metadata>
	<defs>
		<linearGradient id="g-folder-site-svg" x1="18" x2="110" y1="14" y2="116" gradientUnits="userSpaceOnUse">
			<stop offset="0" stop-color="#d9ffd0"/>
			<stop offset=".55" stop-color="#4ac98a"/>
			<stop offset="1" stop-color="#1d8388"/>
		</linearGradient>
	</defs>
	<rect x="8" y="8" width="112" height="112" rx="27" fill="url(#g-folder-site-svg)"/>
	<path fill="#fff" fill-opacity=".34" d="M24 44h80a8 8 0 0 1 8 8v12H16V52a8 8 0 0 1 8-8z"/>
	<g fill="none" stroke="#fff" stroke-linecap="round" stroke-linejoin="round" stroke-width="2.1" transform="translate(28 28) scale(3)">
		<path d="M20 10a1 1 0 0 0 1-1V6a1 1 0 0 0-1-1h-2.5a1 1 0 0 1-.8-.4l-.9-1.2A1 1 0 0 0 15 3h-2a1 1 0 0 0-1 1v5a1 1 0 0 0 1 1Z" />
		<path d="M20 21a1 1 0 0 0 1-1v-3a1 1 0 0 0-1-1h-2.9a1 1 0 0 1-.88-.55l-.42-.85a1 1 0 0 0-.92-.6H13a1 1 0 0 0-1 1v5a1 1 0 0 0 1 1Z" />
		<path d="M3 5a2 2 0 0 0 2 2h3" />
		<path d="M3 3v13a2 2 0 0 0 2 2h3" />
	</g>
</svg>
