<svg xmlns="http://www.w3.org/2000/svg" viewBox="0 0 128 128" role="img" aria-label="media">
	<metadata>Glyph derived from Lucide icon image.svg; see THIRD-PARTY-ASSETS.txt.</metadata>
	<defs>
		<linearGradient id="g-media-svg" x1="18" x2="110" y1="14" y2="116" gradientUnits="userSpaceOnUse">
			<stop offset="0" stop-color="#59e5b9"/>
			<stop offset=".55" stop-color="#34addf"/>
			<stop offset="1" stop-color="#2869a8"/>
		</linearGradient>
	</defs>
	<rect x="8" y="8" width="112" height="112" rx="27" fill="url(#g-media-svg)"/>
	<path fill="#fff" fill-opacity=".2" d="M22 32c22-18 58-18 84 4 8 7 12 18 11 31-19-10-39-13-60-7-18 5-35 0-50-13 2-6 7-11 15-15z"/>
	<g fill="none" stroke="#fff" stroke-linecap="round" stroke-linejoin="round" stroke-width="2.2" transform="translate(28 28) scale(3)">
		<rect width="18" height="18" x="3" y="3" rx="2" ry="2" />
		<circle cx="9" cy="9" r="2" />
		<path d="m21 15-3.086-3.086a2 2 0 0 0-2.828 0L6 21" />
	</g>
</svg>
