<svg xmlns="http://www.w3.org/2000/svg" viewBox="0 0 128 128" role="img" aria-label="pages">
	<metadata>Glyph derived from Lucide icon files.svg; see THIRD-PARTY-ASSETS.txt.</metadata>
	<defs>
		<linearGradient id="g-pages-svg" x1="18" x2="110" y1="14" y2="116" gradientUnits="userSpaceOnUse">
			<stop offset="0" stop-color="#77d8ff"/>
			<stop offset=".55" stop-color="#5b8ef1"/>
			<stop offset="1" stop-color="#5a59c5"/>
		</linearGradient>
	</defs>
	<rect x="8" y="8" width="112" height="112" rx="27" fill="url(#g-pages-svg)"/>
	<path fill="#fff" fill-opacity=".2" d="M22 32c22-18 58-18 84 4 8 7 12 18 11 31-19-10-39-13-60-7-18 5-35 0-50-13 2-6 7-11 15-15z"/>
	<g fill="none" stroke="#fff" stroke-linecap="round" stroke-linejoin="round" stroke-width="2.2" transform="translate(28 28) scale(3)">
		<path d="M15 2h-4a2 2 0 0 0-2 2v11a2 2 0 0 0 2 2h8a2 2 0 0 0 2-2V8" />
		<path d="M16.706 2.706A2.4 2.4 0 0 0 15 2v5a1 1 0 0 0 1 1h5a2.4 2.4 0 0 0-.706-1.706z" />
		<path d="M5 7a2 2 0 0 0-2 2v11a2 2 0 0 0 2 2h8a2 2 0 0 0 1.732-1" />
	</g>
</svg>
