<svg xmlns="http://www.w3.org/2000/svg" width="64" height="64" viewBox="0 0 64 64" role="img" aria-label="Media">
  <desc>App glyph based on Tabler Icons v3.44.0 under the MIT License; wrapper by PufferDesk.</desc>
  <defs>
    <linearGradient id="rdm-app-bg" x1="8" y1="6" x2="56" y2="58" gradientUnits="userSpaceOnUse">
      <stop offset="0" stop-color="#ff8aa8"/>
      <stop offset="1" stop-color="#df4d78"/>
    </linearGradient>
  </defs>
  <rect x="7" y="8" width="52" height="52" rx="13" fill="#0f172a" opacity=".18"/>
  <rect x="6" y="6" width="52" height="52" rx="13" fill="url(#rdm-app-bg)"/>
  <rect x="7" y="7" width="50" height="50" rx="12" fill="none" stroke="#ffffff" stroke-opacity=".24"/>
  <path fill="#ffffff" fill-opacity=".16" d="M9 11a7 7 0 0 1 7-7h32a7 7 0 0 1 7 7v9H9z"/>
  <g fill="none" stroke="#f8fbff" stroke-linecap="round" stroke-linejoin="round" stroke-width="1.65" transform="translate(16 16) scale(1.3333333)">
    <path d="M15 8h.01" />
    <path d="M3 6a3 3 0 0 1 3 -3h12a3 3 0 0 1 3 3v12a3 3 0 0 1 -3 3h-12a3 3 0 0 1 -3 -3v-12" />
    <path d="M3 16l5 -5c.928 -.893 2.072 -.893 3 0l5 5" />
    <path d="M14 14l1 -1c.928 -.893 2.072 -.893 3 0l3 3" />
  </g>
</svg>
