<svg xmlns="http://www.w3.org/2000/svg" width="64" height="64" viewBox="0 0 64 64" role="img" aria-label="Trash">
  <desc>Original PufferDesk trash icon for the Redmond theme.</desc>
  <defs>
    <linearGradient id="rdm-trash-can" x1="18" y1="16" x2="46" y2="58" gradientUnits="userSpaceOnUse">
      <stop offset="0" stop-color="#f8fafc"/>
      <stop offset=".55" stop-color="#e2e8f0"/>
      <stop offset="1" stop-color="#b8c4d3"/>
    </linearGradient>
    <linearGradient id="rdm-trash-lid" x1="14" y1="11" x2="50" y2="25" gradientUnits="userSpaceOnUse">
      <stop offset="0" stop-color="#ffffff"/>
      <stop offset="1" stop-color="#d5dde8"/>
    </linearGradient>
  </defs>
  <path fill="#0f172a" opacity=".18" d="M20 22h26l-2.2 29.1A5.4 5.4 0 0 1 38.4 56H27.6a5.4 5.4 0 0 1-5.4-4.9L20 22Z"/>
  <path fill="url(#rdm-trash-can)" stroke="#64748b" stroke-linejoin="round" stroke-width="1.7" d="M19 20h26l-2.3 28.5A5.6 5.6 0 0 1 37.1 54H26.9a5.6 5.6 0 0 1-5.6-5.5L19 20Z"/>
  <path fill="#ffffff" opacity=".46" d="M22 23h20l-.6 5H22.6L22 23Z"/>
  <path fill="url(#rdm-trash-lid)" stroke="#64748b" stroke-linejoin="round" stroke-width="1.7" d="M14 16h36v5H14z"/>
  <path fill="none" stroke="#64748b" stroke-linecap="round" stroke-linejoin="round" stroke-width="1.8" d="M25 16v-4h14v4"/>
  <path fill="none" stroke="#7b8796" stroke-linecap="round" stroke-width="1.7" d="M27 27l1 17M33 27v17M39 27l-1 17"/>
</svg>
