<svg xmlns="http://www.w3.org/2000/svg" width="96" height="96" viewBox="0 0 96 96" fill="none">
	<rect width="96" height="96" rx="22" fill="#2458CA"/>
	<circle cx="48" cy="48" r="11" fill="#FFFFFF"/>
	<path d="M48 66A18 18 0 1 1 30 48 18 18 0 1 1 48 30a18 18 0 1 1 18 18 18 18 0 1 1-18 18Z" stroke="#FFFFFF" stroke-width="7" stroke-linecap="round" stroke-linejoin="round"/>
	<path d="M48 30v6M30 48h6M66 48h-6M48 66v-6M32 32l7.5 7.5M56.5 39.5 64 32M32 64l7.5-7.5M56.5 56.5 64 64" stroke="#B7F2FF" stroke-width="5" stroke-linecap="round" stroke-linejoin="round"/>
</svg>
